<?xml version="1.0" encoding="utf-8"?>
<!-- Generator: Adobe Illustrator 19.1.0, SVG Export Plug-In . SVG Version: 6.00 Build 0)  -->
<svg version="1.1" id="Capa_1" xmlns="http://www.w3.org/2000/svg" xmlns:xlink="http://www.w3.org/1999/xlink" x="0px" y="0px"
	 viewBox="0 0 100 100" style="enable-background:new 0 0 100 100;" xml:space="preserve">
<style type="text/css">
	.st0{fill:#C00000;}
</style>
<path class="st0" d="M34.8,68.3c-1.7,1-4.2,2.2-7,3.3c3.1,2.9,10.4,8.9,21.2,8.9c2.4,0,3.3-1.2,3.3-2.6c0-1.8-1.8-2.8-4.6-3.6
	C44,73.2,38,71.7,38,67.1c0-0.5,0.1-0.9,0.2-1.3C37.2,66.9,35.9,67.6,34.8,68.3z M67.8,23.7c-1.3,0-2.4,1.2-2.4,2.5
	c0,1.2,0.8,2.6,2,4.2c1.7,2.3,4.5,5.6,4.5,8.7c0,2-1.1,3.2-1.9,3.7c0.6-0.1,1.2-0.2,1.8-0.2c2.2,0,6.1,0.6,10.1,1.6
	C81.1,40,78.7,30.9,70,24.5C69.1,23.9,68.4,23.7,67.8,23.7z M63.8,69.9c0.4,2,0.8,4.7,1,7.7c2.6-1.4,7.2-4.3,11-9.5
	c2.7-4,4.2-7.8,4.2-9.4c0-1.8-1.5-2.5-2.5-2.5c-1.4,0-2.7,1.3-4.1,3.4c-2.1,3-5.4,8.3-9.8,6.9c-0.5-0.1-0.9-0.4-1.2-0.6
	C63.2,67.1,63.5,68.5,63.8,69.9z M62.2,52.7c1.8-5.5,3.8-8.1,5.9-9.2c-2.7,0.3-6.5-1.4-10.8-4.5c-4.7-3.4-6.5-6.2-7-8.5
	c-0.5,2.7-3.3,5.8-7.6,8.8c-4.7,3.4-7.9,4.3-10.2,4c2.4,1.3,4.4,5,6.1,10c1,2.9,1.4,5.3,1.4,7.1c0,1.6-0.3,2.8-0.7,3.8
	c2-1.9,6.1-2.7,11.3-2.7c5.8,0,8.9,1.2,10.6,2.8c-0.4-0.9-0.6-2.1-0.6-3.4C60.6,58.6,61.2,55.8,62.2,52.7z M65.2,89.5
	c0,8.7-9.7,9.4-15.2,9.4c-5.2,0-11.6-1-16.6-3.3c-5.9-2.7-7.7-5.4-7.7-12.5c0-3.7,0.3-8.2,0.4-10.9c-3.1,1.2-6.4,2.4-9.7,3.5
	C8.2,78.4,4.6,69.4,2.9,64.2c-1.6-4.9-2.2-9.7-2.2-13.6c0-9.1,2.8-12.2,9.7-14.4c3.5-1.1,7.9-2.3,10.5-2.9c-2.1-2.5-4.3-5.4-6.3-8.2
	c-1.2-1.7-1.7-3.3-1.7-4.8c0-5,5.1-9.2,8.5-11.6c4.2-3,12.3-7.5,19.4-7.5c3.9,0,6.4,1.7,9.6,6c2.1,3,4.6,6.8,6,9
	c1.8-2.8,3.8-5.7,5.8-8.5c1.9-2.6,4.2-3.5,6.5-3.5C72.7,4.1,77,7,79.9,9c4.2,3,8.8,7.6,11.5,12.4c1.5,2.6,2.2,4.7,2.2,6.8
	c0,2.4-1.1,4.8-3.3,7.9c-2.1,2.9-5,6.5-6.7,8.5c3.2,0.8,6.6,1.8,9.9,2.9c4.5,1.5,5.9,5,5.9,8.7c0,7.2-4.8,17.8-9.9,23.4
	c-2.9,3.2-5.3,4.6-8.4,4.6c-1.7,0-3.5-0.4-5.8-1.1c-3.5-1.1-7.7-2.8-10.2-3.8C65.1,82.5,65.2,86.1,65.2,89.5z M50.7,17.3
	c-4.9,0-11.4,1-17.7,5.6c-1.2,0.9-1.6,1.8-1.6,2.6c0,0.8,0.6,2.5,2.7,2.5c3,0,7.1-2.6,11.2-2.6c3.9,0,4.9,2.8,5,3.2
	c0.1-1.8,1.7-5.7,5-10.9C54.2,17.4,52.6,17.3,50.7,17.3z M21.9,34.6c-1.8,3.9-5.2,12.6-1.9,22.9c0.7,2.3,2.2,2.7,3.5,2.3
	c1.7-0.6,2.1-2.6,2-5.5c-0.1-3.7-0.5-9.9,3.8-11.3c0.5-0.2,0.9-0.2,1.3-0.2C28.7,41.8,25.7,38.9,21.9,34.6z"/>
</svg>
